<svg width="720" height="557" viewBox="0 0 720 557" fill="none" xmlns="http://www.w3.org/2000/svg">
<g opacity="0.75">
<circle cx="664.61" cy="8.91155" r="8.91155" fill="#D3F3EE"/>
<circle cx="711.088" cy="50.3642" r="8.91155" fill="#D3F3EE"/>
<circle cx="711.088" cy="8.91155" r="8.91155" fill="#D3F3EE"/>
<circle cx="618.132" cy="8.91155" r="8.91155" fill="#D3F3EE"/>
<circle cx="618.132" cy="50.3642" r="8.91155" fill="#D3F3EE"/>
<circle cx="571.654" cy="8.91155" r="8.91155" fill="#D3F3EE"/>
<circle cx="664.61" cy="50.3642" r="8.91155" fill="#D3F3EE"/>
<circle cx="478.698" cy="8.91155" r="8.91155" fill="#D3F3EE"/>
<circle cx="525.176" cy="50.3642" r="8.91155" fill="#D3F3EE"/>
<circle cx="525.176" cy="8.91155" r="8.91155" fill="#D3F3EE"/>
<circle cx="432.22" cy="8.91155" r="8.91155" fill="#D3F3EE"/>
<circle cx="432.22" cy="50.3642" r="8.91155" fill="#D3F3EE"/>
<circle cx="385.742" cy="8.91155" r="8.91155" fill="#D3F3EE"/>
<circle cx="385.742" cy="50.3642" r="8.91155" fill="#D3F3EE"/>
<circle cx="478.698" cy="50.3642" r="8.91155" fill="#D3F3EE"/>
<circle cx="664.61" cy="91.817" r="8.91155" fill="#D3F3EE"/>
<circle cx="711.088" cy="133.27" r="8.91155" fill="#D3F3EE"/>
<circle cx="711.088" cy="91.817" r="8.91155" fill="#D3F3EE"/>
<circle cx="618.132" cy="91.817" r="8.91155" fill="#D3F3EE"/>
<circle cx="618.132" cy="133.27" r="8.91155" fill="#D3F3EE"/>
<circle cx="571.654" cy="91.817" r="8.91155" fill="#D3F3EE"/>
<circle cx="571.654" cy="133.27" r="8.91155" fill="#D3F3EE"/>
<circle cx="664.61" cy="133.27" r="8.91155" fill="#D3F3EE"/>
<circle cx="525.176" cy="133.27" r="8.91155" fill="#D3F3EE"/>
<circle cx="525.176" cy="91.817" r="8.91155" fill="#D3F3EE"/>
<circle cx="432.22" cy="91.817" r="8.91155" fill="#D3F3EE"/>
<circle cx="432.22" cy="133.27" r="8.91155" fill="#D3F3EE"/>
<circle cx="385.742" cy="133.27" r="8.91155" fill="#D3F3EE"/>
<circle cx="478.698" cy="133.27" r="8.91155" fill="#D3F3EE"/>
<circle cx="478.698" cy="174.722" r="8.91155" fill="#D3F3EE"/>
<circle cx="525.176" cy="216.175" r="8.91155" fill="#D3F3EE"/>
<circle cx="525.176" cy="174.722" r="8.91155" fill="#D3F3EE"/>
<circle cx="432.22" cy="174.722" r="8.91155" fill="#D3F3EE"/>
<circle cx="432.22" cy="216.175" r="8.91155" fill="#D3F3EE"/>
<circle cx="385.742" cy="174.722" r="8.91155" fill="#D3F3EE"/>
<circle cx="385.742" cy="216.175" r="8.91155" fill="#D3F3EE"/>
<circle cx="478.698" cy="216.175" r="8.91155" fill="#D3F3EE"/>
<circle cx="478.698" cy="257.628" r="8.91155" fill="#D3F3EE"/>
<circle cx="525.176" cy="299.081" r="8.91155" fill="#D3F3EE"/>
<circle cx="525.176" cy="257.628" r="8.91155" fill="#D3F3EE"/>
<circle cx="432.22" cy="257.628" r="8.91155" fill="#D3F3EE"/>
<circle cx="432.22" cy="299.081" r="8.91155" fill="#D3F3EE"/>
<circle cx="385.742" cy="257.628" r="8.91155" fill="#D3F3EE"/>
<circle cx="385.742" cy="299.081" r="8.91155" fill="#D3F3EE"/>
<circle cx="478.698" cy="299.081" r="8.91155" fill="#D3F3EE"/>
<circle cx="664.61" cy="174.722" r="8.91155" fill="#D3F3EE"/>
<circle cx="711.088" cy="216.175" r="8.91155" fill="#D3F3EE"/>
<circle cx="711.088" cy="174.722" r="8.91155" fill="#D3F3EE"/>
<circle cx="618.132" cy="174.722" r="8.91155" fill="#D3F3EE"/>
<circle cx="618.132" cy="216.175" r="8.91155" fill="#D3F3EE"/>
<circle cx="571.654" cy="174.722" r="8.91155" fill="#D3F3EE"/>
<circle cx="571.654" cy="216.175" r="8.91155" fill="#D3F3EE"/>
<circle cx="664.61" cy="216.175" r="8.91155" fill="#D3F3EE"/>
<circle cx="664.61" cy="257.628" r="8.91155" fill="#D3F3EE"/>
<circle cx="711.088" cy="299.081" r="8.91155" fill="#D3F3EE"/>
<circle cx="711.088" cy="257.628" r="8.91155" fill="#D3F3EE"/>
<circle cx="618.132" cy="257.628" r="8.91155" fill="#D3F3EE"/>
<circle cx="618.132" cy="299.081" r="8.91155" fill="#D3F3EE"/>
<circle cx="571.654" cy="257.628" r="8.91155" fill="#D3F3EE"/>
<circle cx="571.654" cy="299.081" r="8.91155" fill="#D3F3EE"/>
<circle cx="664.61" cy="299.081" r="8.91155" fill="#D3F3EE"/>
<circle cx="287.78" cy="8.91155" r="8.91155" fill="#D3F3EE"/>
<circle cx="334.258" cy="50.3642" r="8.91155" fill="#D3F3EE"/>
<circle cx="241.302" cy="50.3642" r="8.91155" fill="#D3F3EE"/>
<circle cx="194.824" cy="8.91155" r="8.91155" fill="#D3F3EE"/>
<circle cx="101.868" cy="8.91155" r="8.91155" fill="#D3F3EE"/>
<circle cx="148.346" cy="8.91155" r="8.91155" fill="#D3F3EE"/>
<circle cx="432.228" cy="423.12" r="8.91155" fill="#D3F3EE"/>
<circle cx="478.706" cy="423.12" r="8.91155" fill="#D3F3EE"/>
<circle cx="385.75" cy="423.12" r="8.91155" fill="#D3F3EE"/>
<circle cx="339.271" cy="423.12" r="8.91155" fill="#D3F3EE"/>
<circle cx="246.315" cy="423.12" r="8.91155" fill="#D3F3EE"/>
<circle cx="292.793" cy="423.12" r="8.91155" fill="#D3F3EE"/>
<circle cx="287.78" cy="91.817" r="8.91155" fill="#D3F3EE"/>
<circle cx="334.258" cy="133.27" r="8.91155" fill="#D3F3EE"/>
<circle cx="334.258" cy="91.817" r="8.91155" fill="#D3F3EE"/>
<circle cx="148.346" cy="50.3642" r="8.91155" fill="#D3F3EE"/>
<circle cx="241.302" cy="174.722" r="8.91155" fill="#D3F3EE"/>
<circle cx="194.824" cy="216.175" r="8.91155" fill="#D3F3EE"/>
<circle cx="241.302" cy="216.175" r="8.91155" fill="#D3F3EE"/>
<circle cx="287.78" cy="174.722" r="8.91155" fill="#D3F3EE"/>
<circle cx="334.258" cy="174.722" r="8.91155" fill="#D3F3EE"/>
<circle cx="334.258" cy="216.175" r="8.91155" fill="#D3F3EE"/>
<circle cx="287.78" cy="216.175" r="8.91155" fill="#D3F3EE"/>
<circle cx="101.868" cy="257.628" r="8.91155" fill="#D3F3EE"/>
<circle cx="148.346" cy="257.628" r="8.91155" fill="#D3F3EE"/>
<circle cx="55.3896" cy="257.628" r="8.91155" fill="#D3F3EE"/>
<circle cx="8.91155" cy="257.628" r="8.91155" fill="#D3F3EE"/>
<circle cx="287.78" cy="257.628" r="8.91155" fill="#D3F3EE"/>
<circle cx="334.258" cy="257.628" r="8.91155" fill="#D3F3EE"/>
<circle cx="241.302" cy="257.628" r="8.91155" fill="#D3F3EE"/>
<circle cx="194.824" cy="257.628" r="8.91155" fill="#D3F3EE"/>
<circle cx="664.61" cy="340.533" r="8.91155" fill="#D3F3EE"/>
<circle cx="711.088" cy="381.986" r="8.91155" fill="#D3F3EE"/>
<circle cx="711.088" cy="340.533" r="8.91155" fill="#D3F3EE"/>
<circle cx="618.132" cy="340.533" r="8.91155" fill="#D3F3EE"/>
<circle cx="618.132" cy="381.986" r="8.91155" fill="#D3F3EE"/>
<circle cx="571.654" cy="340.533" r="8.91155" fill="#D3F3EE"/>
<circle cx="571.654" cy="381.986" r="8.91155" fill="#D3F3EE"/>
<circle cx="664.61" cy="381.986" r="8.91155" fill="#D3F3EE"/>
<circle cx="478.698" cy="340.533" r="8.91155" fill="#D3F3EE"/>
<circle cx="525.176" cy="381.986" r="8.91155" fill="#D3F3EE"/>
<circle cx="525.176" cy="340.533" r="8.91155" fill="#D3F3EE"/>
<circle cx="432.22" cy="340.533" r="8.91155" fill="#D3F3EE"/>
<circle cx="664.61" cy="423.439" r="8.91155" fill="#D3F3EE"/>
<circle cx="711.088" cy="464.892" r="8.91155" fill="#D3F3EE"/>
<circle cx="711.088" cy="423.439" r="8.91155" fill="#D3F3EE"/>
<circle cx="618.132" cy="423.439" r="8.91155" fill="#D3F3EE"/>
<circle cx="618.132" cy="464.892" r="8.91155" fill="#D3F3EE"/>
<circle cx="571.654" cy="423.439" r="8.91155" fill="#D3F3EE"/>
<circle cx="571.654" cy="464.892" r="8.91155" fill="#D3F3EE"/>
<circle cx="664.61" cy="464.892" r="8.91155" fill="#D3F3EE"/>
<circle cx="525.176" cy="464.892" r="8.91155" fill="#D3F3EE"/>
<circle cx="525.176" cy="423.439" r="8.91155" fill="#D3F3EE"/>
<circle cx="664.61" cy="506.344" r="8.91155" fill="#D3F3EE"/>
<circle cx="711.088" cy="547.797" r="8.91155" fill="#D3F3EE"/>
<circle cx="711.088" cy="506.344" r="8.91155" fill="#D3F3EE"/>
<circle cx="618.132" cy="506.344" r="8.91155" fill="#D3F3EE"/>
<circle cx="618.132" cy="547.797" r="8.91155" fill="#D3F3EE"/>
<circle cx="664.61" cy="547.797" r="8.91155" fill="#D3F3EE"/>
<circle cx="571.685" cy="547.29" r="8.91155" fill="#D3F3EE"/>
<circle cx="478.728" cy="547.29" r="8.91155" fill="#D3F3EE"/>
<circle cx="525.206" cy="547.29" r="8.91155" fill="#D3F3EE"/>
</g>
</svg>
