<svg id="svg" version="1.1" xmlns="http://www.w3.org/2000/svg" xmlns:xlink="http://www.w3.org/1999/xlink" width="100%" viewBox="0, 0, 400,400"><g id="svgg"><path id="path0" d="M0.000 68.332 L 0.000 136.664 1.456 136.900 C 3.918 137.298,9.337 139.018,13.010 140.566 C 14.932 141.377,17.553 142.340,18.835 142.707 C 37.899 148.170,63.516 181.807,67.791 206.990 C 68.135 209.019,68.664 211.634,68.966 212.800 C 69.268 213.966,69.517 216.413,69.519 218.237 C 69.522 220.061,69.782 222.515,70.097 223.689 C 70.435 224.950,70.673 227.576,70.677 230.097 C 70.687 236.093,70.946 236.774,74.724 240.725 C 81.474 247.783,85.401 254.200,84.268 256.319 C 83.583 257.598,82.831 257.227,79.275 253.856 C 71.341 246.337,69.291 246.104,65.653 252.309 C 61.774 258.924,56.474 260.589,44.848 258.844 C 25.906 256.000,14.709 249.558,1.635 233.981 L 0.005 232.039 0.003 310.194 L 0.000 388.350 27.141 388.350 L 54.282 388.350 54.529 387.087 C 54.665 386.393,56.006 383.117,57.509 379.806 C 59.012 376.495,60.694 372.650,61.247 371.262 C 68.691 352.572,74.247 340.519,78.435 333.981 C 86.082 322.039,87.632 316.971,85.628 310.450 C 84.809 307.787,84.805 295.054,85.621 291.592 C 85.941 290.236,86.208 288.427,86.214 287.573 C 86.234 285.034,88.416 274.086,90.321 266.971 C 91.470 262.680,91.491 261.353,90.460 258.190 C 88.284 251.516,90.582 236.963,94.780 230.831 C 101.913 220.414,110.126 216.235,114.246 220.927 C 121.510 229.200,123.673 235.028,120.097 236.689 C 118.082 237.625,118.018 238.268,119.700 240.707 C 122.838 245.259,121.470 249.345,112.588 261.942 C 107.819 268.707,106.475 274.175,109.581 274.175 C 109.959 274.175,112.415 271.999,115.037 269.340 C 120.768 263.528,123.107 262.584,123.107 266.080 C 123.107 268.164,117.513 277.242,113.600 281.507 C 112.066 283.179,112.035 283.269,111.833 286.750 C 111.586 291.013,110.607 293.351,106.514 299.457 C 100.689 308.145,101.150 310.288,107.766 305.269 C 119.119 296.654,131.321 292.251,143.163 292.495 L 149.709 292.630 152.621 294.014 C 158.500 296.808,161.206 299.272,164.614 304.935 C 165.870 307.023,167.360 308.127,170.563 309.343 C 177.950 312.147,182.178 316.474,184.286 323.383 C 187.586 334.204,187.552 333.953,186.410 338.713 C 184.933 344.877,184.371 344.496,195.534 344.899 C 207.621 345.335,212.177 346.267,222.136 350.342 C 229.664 353.422,232.405 354.950,239.798 360.184 C 247.769 365.826,259.067 380.780,260.081 387.028 L 260.296 388.350 330.148 388.350 L 400.000 388.350 400.000 344.466 L 400.000 300.583 399.074 300.583 C 398.564 300.583,396.685 300.052,394.899 299.404 C 393.112 298.757,390.078 297.893,388.155 297.486 C 386.233 297.078,382.388 296.201,379.612 295.537 C 374.827 294.391,374.136 294.326,366.408 294.296 C 354.602 294.250,351.646 295.116,347.784 299.753 C 345.093 302.983,343.155 304.439,340.000 305.599 C 335.279 307.334,332.852 309.910,325.907 320.554 C 323.667 323.987,321.193 327.583,320.410 328.544 C 319.627 329.505,317.127 333.100,314.853 336.534 C 309.451 344.693,306.142 347.670,300.198 349.719 C 298.808 350.198,296.789 350.943,295.712 351.374 C 291.576 353.030,286.865 353.468,275.137 353.287 C 261.133 353.071,257.456 352.699,247.379 350.478 C 245.990 350.172,243.107 349.636,240.971 349.287 C 216.480 345.283,208.179 337.233,208.167 317.476 C 208.160 306.396,215.908 295.301,225.950 292.010 C 231.125 290.315,243.352 283.067,247.854 279.026 C 253.937 273.567,265.419 269.691,277.282 269.093 C 286.264 268.639,292.842 268.046,294.369 267.550 C 299.053 266.031,320.595 266.127,328.544 267.703 C 330.359 268.063,333.680 268.716,335.922 269.154 C 343.827 270.700,345.109 271.014,351.650 273.003 C 360.599 275.724,372.668 280.989,380.214 285.464 C 382.255 286.674,385.557 288.483,387.553 289.484 C 389.549 290.485,391.946 291.829,392.879 292.471 C 394.764 293.768,398.953 295.922,399.590 295.922 C 399.877 295.922,400.000 251.582,400.000 147.961 L 400.000 0.000 370.680 0.000 C 354.014 0.000,341.359 0.148,341.359 0.342 C 341.359 0.531,344.072 3.477,347.388 6.889 C 350.703 10.301,354.155 14.054,355.058 15.229 C 355.960 16.404,357.426 18.308,358.315 19.460 C 374.838 40.873,374.738 60.954,358.054 72.061 C 350.403 77.154,344.488 78.934,342.342 76.789 C 337.562 72.008,337.967 62.880,343.366 53.757 C 346.596 48.299,345.881 46.287,339.417 42.638 C 333.130 39.089,332.516 38.316,330.039 30.835 C 328.236 25.390,326.435 22.828,324.078 22.353 C 323.437 22.224,320.466 21.313,317.476 20.328 C 313.054 18.872,311.604 18.556,309.709 18.637 C 308.427 18.691,306.821 18.727,306.139 18.717 C 304.693 18.696,297.960 15.112,294.757 12.659 C 293.583 11.759,291.101 9.935,289.243 8.606 C 285.359 5.828,283.279 3.578,282.649 1.474 L 282.207 -0.000 275.278 -0.000 C 271.467 -0.000,268.350 0.069,268.350 0.154 C 268.350 0.239,268.889 1.593,269.547 3.164 C 271.972 8.945,271.945 10.033,269.296 13.127 C 266.100 16.861,263.849 17.394,256.788 16.090 C 251.693 15.149,251.358 15.133,248.937 15.706 C 244.641 16.722,241.533 17.081,237.016 17.084 C 234.627 17.086,232.180 17.280,231.579 17.515 C 230.977 17.750,228.799 18.079,226.737 18.247 C 213.284 19.341,205.163 27.969,202.539 43.959 C 201.907 47.807,194.812 56.152,189.584 59.196 C 185.107 61.803,176.099 64.448,171.650 64.462 C 168.205 64.473,166.442 65.015,165.887 66.233 C 165.202 67.736,165.275 86.965,165.976 89.724 C 166.272 90.890,166.629 92.807,166.768 93.983 C 167.295 98.410,169.113 100.252,173.897 101.203 C 179.018 102.222,182.475 100.183,184.414 95.002 C 185.703 91.557,185.449 91.026,182.229 90.433 C 170.629 88.297,168.238 84.098,175.181 78.059 C 178.528 75.148,189.304 69.275,195.340 67.073 C 209.298 61.981,210.801 61.897,213.147 66.086 C 215.506 70.297,213.795 69.850,228.259 70.039 C 235.251 70.130,241.676 70.326,242.538 70.475 C 245.649 71.012,247.297 67.686,245.029 65.448 C 242.902 63.348,231.955 61.380,222.330 61.366 C 216.524 61.357,215.581 61.267,214.511 60.614 C 210.595 58.226,207.639 48.808,209.469 44.551 C 212.469 37.573,231.161 28.041,246.508 25.662 C 247.844 25.454,249.145 25.157,249.398 25.001 C 251.699 23.579,286.465 23.697,290.097 25.140 C 290.631 25.352,291.900 25.647,292.916 25.797 C 302.443 27.196,314.241 35.257,319.359 43.864 C 328.610 59.422,327.362 72.996,316.192 78.296 C 313.106 79.761,310.858 81.625,307.885 85.185 C 305.790 87.694,301.931 91.002,298.641 93.109 C 293.887 96.153,288.702 100.517,287.063 102.854 C 282.198 109.789,277.082 107.406,272.878 96.248 C 269.830 88.157,262.031 75.534,259.248 74.187 C 256.248 72.735,255.213 73.586,254.729 77.901 C 254.287 81.844,253.384 83.563,249.827 87.233 C 242.670 94.617,237.768 94.869,223.689 88.580 C 221.874 87.769,218.578 86.432,216.366 85.608 C 213.142 84.407,211.887 83.703,210.046 82.060 C 207.496 79.784,206.340 79.317,204.988 80.016 C 197.751 83.754,201.080 88.127,215.495 93.816 C 219.778 95.506,220.616 95.998,223.068 98.259 C 226.072 101.030,230.372 104.455,231.820 105.230 C 233.256 105.998,235.352 105.482,238.659 103.546 C 241.995 101.593,250.789 98.587,255.233 97.880 C 256.669 97.651,258.297 97.292,258.850 97.081 C 262.621 95.648,267.867 97.724,269.722 101.385 C 273.241 108.330,265.166 123.944,255.430 129.020 C 248.641 132.560,242.427 134.679,236.893 135.343 C 235.718 135.484,233.895 135.846,232.842 136.149 C 229.670 137.060,216.484 136.910,212.607 135.919 C 208.861 134.961,203.107 134.448,203.107 135.073 C 203.107 135.680,204.851 137.267,207.573 139.138 C 208.854 140.019,210.689 141.344,211.650 142.083 C 217.825 146.828,222.912 147.988,229.083 146.059 C 233.387 144.714,238.868 143.288,243.301 142.360 C 247.330 141.517,255.784 138.421,258.447 136.813 C 261.118 135.201,272.198 127.035,274.064 125.305 C 274.750 124.668,276.451 123.258,277.843 122.171 C 285.884 115.893,287.817 113.656,291.189 106.721 C 293.643 101.675,295.015 100.942,299.035 102.527 C 302.872 104.039,306.401 100.803,309.038 93.354 C 310.619 88.886,312.901 87.745,314.482 90.632 C 315.749 92.947,315.663 114.115,314.360 120.567 C 310.662 138.880,306.826 143.532,292.621 146.934 C 291.340 147.241,288.981 147.939,287.379 148.484 C 272.806 153.444,266.516 153.760,258.145 149.956 C 250.391 146.433,246.974 146.080,244.642 148.563 C 240.340 153.143,250.824 163.001,262.534 165.387 C 272.843 167.488,276.231 167.710,280.163 166.543 C 280.821 166.348,283.108 166.030,285.246 165.836 C 291.747 165.246,299.795 162.273,305.780 158.249 C 312.040 154.041,312.931 152.107,314.999 138.252 C 316.557 127.808,319.868 123.495,326.328 123.495 C 330.083 123.495,330.492 123.283,338.417 117.224 C 344.502 112.572,344.528 112.520,343.891 106.375 C 343.175 99.461,346.134 96.641,354.157 96.591 C 362.199 96.540,369.389 101.919,372.611 110.398 C 373.117 111.728,373.983 113.830,374.536 115.069 C 379.358 125.870,379.931 151.991,375.674 166.932 C 372.561 177.856,357.665 197.740,346.602 205.738 C 345.534 206.511,343.999 207.724,343.192 208.435 C 342.384 209.147,338.889 211.581,335.425 213.845 C 331.961 216.109,328.654 218.358,328.077 218.842 C 326.805 219.911,311.995 227.284,306.602 229.534 C 300.120 232.237,284.973 237.050,279.806 238.047 C 278.524 238.294,276.669 238.754,275.682 239.068 C 273.463 239.776,265.515 241.391,260.583 242.136 C 258.553 242.443,256.194 242.870,255.340 243.085 C 254.485 243.301,252.072 243.481,249.977 243.486 C 247.882 243.491,244.930 243.687,243.416 243.922 C 237.359 244.862,219.345 240.178,213.398 236.116 C 212.544 235.533,207.476 232.913,202.136 230.294 C 185.495 222.132,180.391 218.504,175.562 211.403 C 173.945 209.024,171.531 205.918,170.199 204.501 C 165.892 199.919,166.627 197.618,172.024 198.786 C 173.207 199.042,175.748 199.513,177.670 199.833 C 179.592 200.153,182.650 200.757,184.466 201.176 C 191.489 202.794,200.641 204.279,203.567 204.274 C 204.354 204.273,205.490 204.464,206.091 204.698 C 206.693 204.933,208.670 205.272,210.485 205.451 C 218.866 206.280,221.339 206.607,223.487 207.166 C 224.756 207.497,226.762 207.769,227.946 207.772 C 229.129 207.774,231.058 208.034,232.233 208.350 C 233.908 208.799,237.095 208.924,246.990 208.927 C 254.284 208.929,260.946 209.117,262.773 209.373 C 266.305 209.866,267.752 209.660,268.330 208.581 C 269.635 206.141,261.076 202.931,251.545 202.286 C 236.922 201.297,237.156 201.324,235.340 200.393 C 231.891 198.625,227.627 193.927,221.412 185.049 C 213.193 173.306,214.251 174.474,209.551 171.948 C 207.221 170.696,203.901 168.621,202.172 167.336 C 200.443 166.052,197.833 164.112,196.371 163.025 C 194.909 161.938,193.037 160.194,192.211 159.149 C 190.698 157.236,190.520 156.667,190.106 152.453 C 189.732 148.653,188.839 148.342,184.070 150.350 C 174.366 154.436,171.773 153.868,163.549 145.852 C 157.394 139.853,156.735 139.480,155.368 141.217 C 153.822 143.183,155.572 146.364,159.612 148.930 C 160.359 149.405,162.139 150.823,163.566 152.081 C 168.178 156.147,171.382 158.779,174.977 161.456 C 176.914 162.898,180.040 165.388,181.926 166.990 C 183.811 168.592,186.595 170.958,188.114 172.247 C 189.632 173.536,191.681 175.166,192.667 175.868 C 197.528 179.330,198.621 183.933,195.165 186.392 C 194.727 186.703,193.025 188.232,191.383 189.790 C 186.833 194.106,184.011 194.460,173.204 192.071 C 169.893 191.338,165.961 190.485,164.466 190.175 C 157.517 188.732,152.515 187.446,149.126 186.229 C 147.097 185.500,144.476 184.616,143.301 184.265 C 138.803 182.919,128.870 176.201,124.078 171.263 C 122.796 169.942,120.786 168.196,119.612 167.381 C 108.146 159.434,97.067 132.272,97.988 114.369 C 98.274 108.790,98.898 103.062,99.403 101.362 C 100.056 99.164,99.872 96.258,98.797 91.799 C 95.988 80.142,100.600 75.271,106.691 83.461 C 110.087 88.026,113.340 92.587,115.579 95.922 C 117.698 99.079,118.914 100.621,124.467 107.199 C 130.354 114.171,143.831 121.743,150.129 121.616 C 156.332 121.492,156.617 117.314,151.049 108.155 C 149.491 105.592,147.153 101.485,145.854 99.029 C 143.210 94.030,142.063 92.286,137.977 87.049 C 126.337 72.131,125.968 67.156,135.134 48.738 C 139.816 39.331,141.445 35.260,142.516 30.291 C 142.907 28.476,143.606 25.330,144.068 23.301 C 144.531 21.272,145.072 18.388,145.271 16.893 C 145.995 11.457,148.182 6.929,152.446 2.039 L 154.223 -0.000 77.112 -0.000 L 0.000 0.000 0.000 68.332 M117.846 18.414 C 119.884 19.266,120.290 20.268,120.850 25.825 C 121.530 32.572,121.441 40.267,120.643 43.583 C 118.655 51.854,108.149 65.914,97.971 73.926 C 88.915 81.054,87.185 87.135,88.872 105.913 C 89.087 108.311,89.361 110.432,89.481 110.625 C 89.601 110.819,90.118 113.313,90.631 116.168 C 91.758 122.440,93.836 131.478,96.202 140.388 C 98.385 148.614,100.448 153.042,108.105 165.940 C 111.362 171.425,110.986 173.054,106.027 174.949 C 102.892 176.147,101.682 177.332,100.538 180.326 C 98.891 184.638,95.612 184.764,86.381 180.870 C 74.419 175.825,57.871 157.178,51.662 141.748 C 50.164 138.024,49.494 135.776,46.745 125.243 C 45.704 121.256,44.278 113.091,44.269 111.068 C 44.265 110.320,44.005 108.748,43.689 107.573 C 43.015 105.060,42.887 94.921,43.503 92.813 C 43.722 92.067,44.170 89.534,44.501 87.184 C 44.890 84.417,45.776 80.890,47.017 77.171 C 48.070 74.013,48.932 71.232,48.932 70.990 C 48.932 70.749,50.705 66.954,52.872 62.557 C 61.276 45.508,68.442 36.892,81.553 28.077 C 91.062 21.684,112.202 16.056,117.846 18.414 M126.485 187.734 C 128.151 188.249,130.126 188.793,130.874 188.941 C 135.408 189.843,147.387 195.151,153.310 198.882 C 166.210 207.009,170.640 211.798,175.901 223.301 C 177.219 226.184,178.593 229.141,178.954 229.870 C 179.983 231.954,184.602 235.662,188.291 237.366 C 190.089 238.197,192.541 239.543,193.741 240.357 C 196.050 241.925,197.882 242.774,202.913 244.610 C 204.621 245.234,206.981 246.099,208.155 246.534 C 211.961 247.942,226.397 251.952,234.563 253.870 C 246.810 256.746,247.503 256.874,254.159 257.489 C 264.508 258.445,262.339 263.175,250.874 264.656 C 248.204 265.000,245.146 265.459,244.078 265.674 C 243.010 265.889,238.553 266.218,234.175 266.405 C 229.796 266.592,225.165 266.931,223.883 267.157 C 222.602 267.383,219.905 267.569,217.890 267.571 C 215.874 267.572,213.253 267.826,212.064 268.136 C 210.876 268.446,208.243 269.068,206.214 269.519 C 204.184 269.970,201.214 270.680,199.612 271.095 C 198.010 271.511,195.039 272.204,193.010 272.635 C 190.981 273.065,188.159 273.675,186.741 273.990 C 181.701 275.109,173.466 274.775,167.435 273.208 C 151.874 269.164,142.165 259.288,135.524 240.748 C 134.702 238.455,133.527 235.383,132.911 233.921 C 132.295 232.458,130.960 228.553,129.943 225.243 C 128.926 221.932,127.422 217.388,126.601 215.146 C 125.781 212.903,124.201 208.184,123.091 204.660 C 121.981 201.136,120.383 196.717,119.539 194.841 C 116.146 187.297,118.219 185.176,126.485 187.734 M77.529 362.854 C 77.180 363.592,76.893 364.449,76.893 364.759 C 76.893 365.068,75.949 367.246,74.794 369.598 C 73.640 371.950,72.250 375.111,71.705 376.622 C 71.160 378.133,70.091 380.606,69.329 382.119 C 68.568 383.631,67.837 385.652,67.706 386.609 L 67.467 388.350 74.457 388.350 L 81.447 388.350 81.903 385.520 C 82.282 383.169,82.260 382.265,81.768 380.180 C 81.443 378.799,81.174 375.969,81.171 373.891 C 81.166 370.495,80.803 367.022,80.043 363.107 C 79.668 361.170,78.390 361.041,77.529 362.854 M152.562 374.138 C 152.005 374.426,148.777 376.566,145.387 378.892 C 141.997 381.218,138.175 383.705,136.893 384.419 C 134.556 385.721,132.427 387.444,132.427 388.034 C 132.427 388.207,138.828 388.350,146.650 388.350 L 160.874 388.350 160.622 387.090 C 160.219 385.077,155.184 374.683,154.340 374.123 C 153.705 373.701,153.398 373.704,152.562 374.138 " stroke="none" fill="#c31313" fill-rule="evenodd"></path><path id="path1" d="M156.117 0.719 C 156.117 1.114,155.595 2.119,154.957 2.952 C 150.093 9.302,148.519 12.358,148.133 16.207 C 147.912 18.406,146.849 23.488,145.783 27.438 C 145.486 28.539,145.242 29.850,145.241 30.351 C 145.236 32.473,141.282 42.488,137.552 49.825 C 128.838 66.966,129.151 71.191,140.202 85.631 C 144.197 90.852,146.022 93.616,147.765 97.087 C 149.281 100.106,151.914 104.664,154.800 109.265 C 164.169 124.201,149.622 129.620,132.752 117.479 C 131.399 116.505,129.330 115.034,128.155 114.209 C 124.499 111.643,119.976 106.525,114.369 98.609 C 111.236 94.186,107.866 89.486,105.132 85.726 C 100.835 79.817,99.123 82.869,101.527 92.154 C 102.667 96.559,102.719 98.603,101.808 103.301 C 99.280 116.347,99.969 123.280,105.552 140.971 C 108.648 150.782,115.630 161.509,121.553 165.555 C 122.515 166.211,124.961 168.338,126.990 170.281 C 133.013 176.047,140.311 180.744,145.672 182.302 C 146.856 182.646,149.123 183.424,150.709 184.030 C 152.295 184.637,154.816 185.350,156.311 185.615 C 157.806 185.880,160.602 186.507,162.524 187.007 C 164.447 187.508,166.893 188.033,167.961 188.175 C 169.825 188.421,173.691 189.292,178.278 190.499 C 183.081 191.763,186.010 191.153,189.077 188.249 C 190.279 187.112,191.920 185.685,192.724 185.079 C 195.795 182.764,194.916 180.662,189.098 176.415 C 188.152 175.724,185.544 173.586,183.301 171.663 C 181.058 169.740,177.214 166.595,174.757 164.675 C 172.301 162.755,169.417 160.425,168.350 159.496 C 167.282 158.568,165.447 157.098,164.272 156.229 C 163.097 155.360,161.524 154.004,160.777 153.214 C 160.029 152.424,158.926 151.521,158.326 151.207 C 152.025 147.908,150.117 141.751,154.234 138.006 C 156.695 135.767,157.795 136.314,164.853 143.282 C 171.553 149.897,171.565 149.904,174.829 149.898 C 177.875 149.893,180.290 149.261,184.229 147.437 C 190.266 144.644,192.279 145.753,192.749 152.131 C 193.011 155.688,193.500 156.899,195.404 158.704 C 198.366 161.512,207.365 167.844,211.300 169.888 L 215.525 172.083 218.275 176.042 C 232.542 196.578,234.591 198.519,242.524 199.001 C 244.660 199.131,247.107 199.405,247.961 199.609 C 248.816 199.814,251.095 199.986,253.026 199.991 C 259.254 200.007,269.539 203.408,271.099 205.967 C 273.597 210.062,269.564 213.097,262.982 212.076 C 261.405 211.831,254.768 211.650,247.360 211.650 C 237.540 211.650,233.867 211.516,231.900 211.086 C 230.481 210.776,227.748 210.336,225.825 210.109 C 223.903 209.881,221.456 209.528,220.388 209.324 C 219.320 209.120,216.612 208.770,214.369 208.547 C 212.126 208.324,209.155 207.962,207.767 207.744 C 202.901 206.978,197.450 206.181,194.678 205.832 C 193.139 205.637,191.216 205.300,190.406 205.082 C 186.348 203.991,177.051 202.348,174.877 202.338 C 172.662 202.327,172.580 202.707,174.321 204.907 C 175.143 205.946,176.883 208.464,178.186 210.502 C 182.086 216.602,185.578 219.015,203.495 227.990 C 209.155 230.825,214.311 233.532,214.951 234.005 C 216.746 235.329,219.899 236.810,221.991 237.312 C 223.032 237.561,226.245 238.438,229.131 239.262 C 236.628 241.400,239.597 241.799,243.831 241.235 C 245.724 240.983,248.738 240.778,250.529 240.780 C 252.321 240.782,254.922 240.527,256.311 240.213 C 257.699 239.900,259.883 239.478,261.165 239.275 C 275.390 237.026,295.094 231.600,306.408 226.817 C 311.533 224.650,325.538 217.444,327.165 216.137 C 328.030 215.442,330.695 213.660,333.087 212.176 C 342.860 206.114,357.772 192.459,363.774 184.078 C 366.907 179.703,372.995 167.996,373.421 165.529 C 373.558 164.731,373.926 162.942,374.238 161.553 C 376.320 152.275,376.173 131.411,373.960 122.114 C 370.500 107.580,363.694 99.512,354.553 99.109 C 347.549 98.800,346.234 100.173,346.626 107.388 C 346.953 113.416,346.677 114.123,342.805 117.154 C 331.610 125.920,331.019 126.249,326.723 126.117 C 321.638 125.961,319.055 129.314,317.826 137.670 C 315.587 152.888,314.411 155.455,307.475 160.262 C 300.971 164.769,294.031 167.390,286.032 168.361 C 283.462 168.673,280.660 169.099,279.806 169.309 C 277.810 169.799,271.720 169.801,269.709 169.313 C 268.854 169.106,266.468 168.676,264.407 168.357 C 249.930 166.119,238.569 156.257,241.359 148.350 C 241.680 147.441,241.942 146.546,241.942 146.359 C 241.942 145.416,236.078 146.508,229.709 148.638 C 222.535 151.037,217.724 149.794,208.654 143.202 C 207.113 142.082,204.438 140.204,202.710 139.029 C 197.129 135.236,196.892 130.870,202.294 131.385 C 204.913 131.634,212.479 133.005,214.366 133.573 C 216.110 134.097,230.684 134.108,232.056 133.586 C 232.628 133.368,234.930 132.933,237.173 132.618 C 252.659 130.444,264.644 121.220,267.168 109.533 C 268.609 102.860,267.649 100.517,263.049 99.489 C 259.793 98.762,245.527 102.657,240.194 105.730 C 233.304 109.700,230.699 108.956,221.427 100.371 C 219.140 98.253,218.205 97.695,214.724 96.370 C 197.919 89.972,193.628 82.864,203.538 77.843 C 206.645 76.268,207.691 76.517,211.248 79.678 C 212.940 81.181,214.383 81.958,218.369 83.511 C 221.118 84.583,224.357 85.953,225.567 86.557 C 235.942 91.737,242.057 91.498,247.676 85.695 C 251.029 82.232,251.600 81.132,252.039 77.282 C 253.080 68.150,259.793 68.237,265.695 77.458 C 266.795 79.176,268.269 81.481,268.970 82.580 C 270.569 85.087,275.340 94.574,275.340 95.248 C 275.340 96.511,278.064 101.279,279.553 102.621 C 281.621 104.487,282.375 104.458,283.959 102.448 C 287.081 98.485,292.454 93.892,298.544 89.979 C 301.281 88.221,302.062 87.501,308.482 80.814 C 310.828 78.372,312.219 77.295,314.537 76.129 C 323.023 71.863,325.078 64.053,320.725 52.621 C 315.587 39.129,305.461 30.916,290.097 27.781 C 280.442 25.810,256.531 25.798,249.320 27.759 C 248.146 28.079,246.692 28.342,246.090 28.345 C 241.512 28.364,225.204 34.687,218.924 38.878 C 211.817 43.620,210.424 46.742,212.583 53.091 C 214.440 58.551,214.670 58.671,223.689 58.861 C 230.728 59.009,232.513 59.225,239.948 60.825 C 247.476 62.445,249.818 64.782,248.568 69.424 C 247.656 72.812,245.213 73.816,240.308 72.821 C 237.321 72.214,235.433 72.149,225.780 72.317 L 214.686 72.511 213.525 71.534 C 212.886 70.996,211.950 69.624,211.446 68.484 C 209.817 64.799,210.543 64.753,196.505 69.428 C 192.637 70.717,188.224 72.846,185.256 74.857 C 184.515 75.358,182.855 76.274,181.566 76.891 C 179.206 78.021,175.091 81.369,174.342 82.769 C 173.150 84.996,176.716 86.878,184.233 87.989 C 190.617 88.932,187.731 99.787,180.080 103.608 C 176.155 105.568,168.643 103.604,166.143 99.963 C 163.352 95.897,161.263 72.246,163.108 65.602 C 163.835 62.986,164.897 62.420,169.673 62.105 C 184.833 61.105,198.864 52.003,200.198 42.305 C 201.116 35.629,206.539 24.372,210.151 21.644 C 214.290 18.518,220.827 16.107,226.024 15.788 C 227.843 15.676,229.852 15.379,230.490 15.127 C 231.128 14.876,234.621 14.532,238.252 14.364 C 243.048 14.141,245.704 13.826,247.961 13.211 C 251.343 12.290,251.375 12.292,257.780 13.594 C 265.823 15.229,270.046 11.711,267.573 5.437 C 267.146 4.353,266.796 2.686,266.796 1.733 L 266.796 0.000 211.456 0.000 C 157.857 0.000,156.117 0.023,156.117 0.719 M285.018 1.123 C 286.139 2.696,289.550 5.735,292.261 7.573 C 293.520 8.427,295.666 9.964,297.029 10.989 C 301.810 14.584,305.087 15.922,309.104 15.922 C 312.172 15.922,313.148 16.113,317.171 17.496 C 319.688 18.362,322.617 19.239,323.680 19.445 C 327.881 20.258,330.396 23.232,332.570 29.955 C 334.705 36.558,335.426 37.469,340.926 40.510 C 348.408 44.645,349.657 48.206,345.890 54.660 C 341.172 62.743,340.368 70.798,343.923 74.353 C 346.666 77.096,360.423 68.706,364.825 61.606 C 369.723 53.706,368.720 41.216,362.327 30.485 C 357.104 21.720,352.944 16.316,345.434 8.544 C 342.345 5.346,340.084 2.657,339.640 1.650 L 338.911 0.000 311.565 0.000 L 284.219 0.000 285.018 1.123 M107.379 21.111 C 97.151 23.293,86.955 27.343,81.359 31.445 C 79.864 32.541,77.855 33.996,76.895 34.680 C 68.178 40.886,55.165 60.073,51.426 72.233 C 51.065 73.408,50.011 76.641,49.085 79.417 C 48.159 82.194,47.297 85.515,47.171 86.796 C 47.045 88.078,46.701 90.262,46.406 91.650 C 45.509 95.876,45.335 103.068,46.053 106.214 C 46.395 107.709,46.810 110.330,46.975 112.039 C 47.356 115.965,49.077 124.350,50.284 128.155 C 50.792 129.757,51.320 131.680,51.456 132.427 C 54.329 148.154,72.220 171.303,86.693 178.020 C 94.328 181.564,96.850 181.598,98.322 178.178 C 99.270 175.974,101.938 173.449,104.013 172.792 C 108.326 171.425,108.185 170.672,101.622 160.012 C 97.373 153.111,93.843 143.736,91.631 133.474 C 91.208 131.510,90.506 128.417,90.071 126.602 C 89.637 124.786,88.937 121.204,88.515 118.641 C 88.093 116.078,87.490 112.978,87.175 111.753 C 86.860 110.529,86.601 108.694,86.600 107.676 C 86.600 106.658,86.341 104.252,86.025 102.330 C 83.906 89.436,87.647 78.099,96.002 72.093 C 105.802 65.049,117.032 49.554,118.455 41.113 C 119.329 35.932,118.355 22.648,117.002 21.295 C 115.799 20.092,112.453 20.028,107.379 21.111 M309.489 98.893 C 304.754 105.958,302.941 106.989,298.333 105.238 C 295.566 104.186,295.031 104.539,293.125 108.677 C 290.142 115.153,286.987 118.684,278.777 124.731 C 277.709 125.518,276.012 126.916,275.005 127.838 C 273.255 129.440,267.465 133.827,262.381 137.403 C 259.496 139.432,256.838 140.831,254.032 141.797 C 250.212 143.111,250.027 143.705,253.080 144.847 C 254.293 145.301,257.129 146.570,259.381 147.668 C 266.326 151.051,277.284 150.152,288.687 145.265 C 289.590 144.877,291.088 144.432,292.017 144.276 C 297.182 143.403,302.839 140.689,305.400 137.854 C 309.851 132.927,312.733 120.059,312.548 105.941 C 312.402 94.807,312.333 94.650,309.489 98.893 M-0.000 184.171 L -0.000 229.785 1.553 230.485 C 2.408 230.871,3.107 231.331,3.107 231.509 C 3.107 232.059,15.938 244.994,17.945 246.467 C 29.015 254.593,53.534 259.539,60.277 255.006 C 61.021 254.506,62.444 252.668,63.689 250.599 C 67.247 244.687,68.413 243.993,72.422 245.402 C 76.076 246.687,76.068 246.507,72.260 242.136 C 68.715 238.067,68.340 237.077,68.110 231.190 C 68.004 228.453,67.726 225.427,67.494 224.466 C 67.261 223.505,66.943 220.709,66.786 218.252 C 66.430 212.658,65.240 206.598,63.317 200.583 C 62.497 198.019,61.532 194.961,61.172 193.786 C 59.790 189.283,51.722 175.024,47.222 169.134 C 38.091 157.181,27.042 148.337,16.856 144.826 C 14.313 143.950,12.031 143.066,11.784 142.861 C 11.538 142.657,9.091 141.744,6.347 140.832 C 3.604 139.920,1.053 139.035,0.680 138.866 C 0.034 138.573,-0.000 140.871,-0.000 184.171 M121.600 189.866 C 120.889 190.316,121.170 191.720,122.694 195.325 C 123.367 196.919,124.622 200.578,125.483 203.455 C 126.344 206.333,127.707 210.447,128.513 212.596 C 129.319 214.746,130.801 219.214,131.808 222.524 C 132.815 225.835,134.660 231.165,135.908 234.369 C 137.156 237.573,138.299 240.631,138.448 241.165 C 138.961 243.008,144.167 253.403,145.546 255.340 C 156.616 270.885,174.592 275.638,197.049 268.956 C 198.779 268.442,200.806 267.907,201.553 267.769 C 204.770 267.175,211.857 265.549,212.223 265.321 C 212.686 265.032,221.185 264.553,232.816 264.159 C 237.301 264.008,241.158 263.761,241.388 263.612 C 241.617 263.462,243.365 263.151,245.271 262.920 C 249.219 262.442,252.816 261.513,252.816 260.971 C 252.816 260.534,249.650 259.591,246.408 259.064 C 245.126 258.855,242.505 258.329,240.583 257.894 C 238.660 257.459,235.078 256.658,232.621 256.114 C 230.165 255.570,226.757 254.704,225.049 254.190 C 223.340 253.676,220.631 252.915,219.029 252.498 C 213.142 250.968,207.811 249.292,205.393 248.212 C 204.029 247.602,202.061 246.895,201.021 246.641 C 198.376 245.995,194.693 244.264,191.840 242.327 C 190.507 241.422,187.918 239.989,186.086 239.143 C 181.740 237.135,177.119 232.817,175.939 229.663 C 173.553 223.287,168.274 214.065,165.442 211.327 C 156.866 203.035,139.275 193.268,129.320 191.273 C 128.573 191.123,126.851 190.666,125.493 190.258 C 122.718 189.422,122.358 189.386,121.600 189.866 M107.488 221.862 C 106.006 222.519,98.692 229.713,97.196 231.986 C 93.145 238.138,91.102 250.679,93.046 257.456 C 94.193 261.457,94.162 263.424,92.883 267.767 C 91.091 273.855,88.937 284.410,88.926 287.159 C 88.923 288.027,88.573 290.381,88.149 292.389 C 87.063 297.537,87.085 305.119,88.200 309.775 C 89.250 314.161,89.083 320.029,87.826 322.870 C 86.748 325.306,82.459 332.736,80.179 336.117 C 79.171 337.612,78.042 339.534,77.671 340.388 C 77.300 341.243,76.428 342.902,75.733 344.076 C 75.039 345.250,73.984 347.435,73.389 348.931 C 72.794 350.427,71.406 353.748,70.304 356.311 C 69.202 358.874,67.251 363.505,65.969 366.602 C 61.969 376.259,59.362 382.227,57.910 385.049 C 57.141 386.544,56.452 387.898,56.379 388.058 C 56.306 388.218,58.328 388.350,60.873 388.350 L 65.501 388.350 65.334 386.311 C 65.188 384.533,65.350 383.924,66.603 381.553 C 67.393 380.058,68.818 376.913,69.770 374.563 C 70.721 372.214,71.909 369.592,72.408 368.738 C 72.907 367.883,73.769 365.699,74.323 363.883 C 76.209 357.700,78.803 355.165,81.076 357.282 C 82.448 358.560,83.307 363.553,83.882 373.592 C 84.047 376.476,84.377 379.445,84.615 380.192 C 84.854 380.938,85.049 382.191,85.049 382.978 C 85.049 383.764,85.253 385.294,85.504 386.378 L 85.959 388.350 107.348 388.348 L 128.738 388.347 129.709 386.504 C 130.552 384.902,131.113 384.430,133.981 382.909 C 137.123 381.241,138.807 380.156,148.423 373.604 C 155.892 368.515,155.899 368.521,162.655 384.951 L 164.052 388.350 211.152 388.350 C 237.057 388.350,258.242 388.218,258.230 388.058 C 258.217 387.898,257.387 386.147,256.385 384.168 C 245.009 361.695,220.016 347.184,192.684 347.184 C 182.450 347.184,181.182 346.443,182.834 341.424 C 184.856 335.278,184.868 334.091,182.968 328.327 C 182.338 326.417,181.548 323.893,181.213 322.718 C 179.940 318.264,175.945 314.502,169.642 311.826 C 165.057 309.880,163.637 308.666,161.260 304.664 C 152.470 289.865,131.455 291.590,106.990 309.119 C 102.507 312.331,99.982 311.924,99.530 307.916 C 99.289 305.773,99.644 305.017,103.601 299.251 C 108.001 292.840,108.924 290.651,108.956 286.546 C 108.986 282.882,109.107 282.580,111.823 279.442 C 114.231 276.660,115.696 273.364,113.684 275.254 C 110.837 277.928,107.122 277.822,105.796 275.029 C 104.310 271.897,105.968 266.839,110.658 260.194 C 112.947 256.952,116.525 251.177,117.847 248.591 C 118.914 246.505,118.764 244.193,117.440 242.293 C 115.163 239.028,114.956 238.617,114.954 237.365 C 114.951 236.085,115.334 235.587,117.807 233.654 C 119.212 232.554,118.894 231.654,115.343 226.690 C 111.625 221.493,110.241 220.642,107.488 221.862 M307.767 269.111 C 307.126 269.282,304.493 269.443,301.915 269.469 C 299.189 269.495,296.427 269.744,295.313 270.062 C 294.260 270.363,291.489 270.723,289.155 270.862 C 286.822 271.000,284.046 271.278,282.986 271.479 C 281.926 271.680,279.204 271.843,276.937 271.841 C 274.670 271.840,271.680 272.096,270.291 272.411 C 268.903 272.726,266.194 273.334,264.272 273.762 C 259.716 274.776,253.055 278.047,249.903 280.815 C 244.989 285.132,233.326 292.018,226.712 294.508 C 216.475 298.361,209.191 310.454,210.860 320.824 C 213.751 338.791,218.324 342.588,242.136 346.791 C 244.485 347.206,248.505 347.995,251.068 348.544 C 260.407 350.544,284.149 351.466,290.485 350.073 C 299.477 348.097,306.689 344.134,309.690 339.521 C 310.555 338.192,312.873 334.785,314.842 331.950 C 316.811 329.116,320.468 323.738,322.969 320.000 C 327.931 312.585,331.003 308.615,333.636 306.214 C 335.158 304.826,336.154 304.286,340.878 302.291 C 342.436 301.633,345.172 299.151,346.582 297.116 C 349.428 293.009,354.328 291.653,366.328 291.651 C 375.000 291.650,375.497 291.709,382.913 293.594 C 390.496 295.522,391.512 294.453,385.158 291.232 C 383.509 290.396,380.363 288.639,378.167 287.327 C 369.852 282.360,352.077 275.207,343.883 273.531 C 342.388 273.226,339.680 272.630,337.864 272.209 C 336.049 271.787,332.856 271.191,330.769 270.885 C 328.682 270.578,326.760 270.192,326.497 270.026 C 326.234 269.860,323.136 269.588,319.612 269.422 C 316.087 269.256,312.243 269.048,311.068 268.959 C 309.893 268.871,308.408 268.939,307.767 269.111 " stroke="none" fill="#ffffff" fill-rule="evenodd"></path></g></svg>