<svg id="svg" version="1.1" xmlns="http://www.w3.org/2000/svg" xmlns:xlink="http://www.w3.org/1999/xlink" viewBox="0, 0, 400,320" width="100%"><g id="svgg"><path id="path0" d="M51.728 7.413 C 51.666 7.648,51.358 8.560,51.044 9.440 C 40.787 38.131,59.754 74.272,94.985 93.170 C 96.335 93.894,99.112 95.395,101.155 96.506 C 108.884 100.708,120.792 106.437,128.160 109.498 C 141.907 115.211,147.476 118.097,154.851 123.330 C 172.550 135.889,176.916 145.014,176.950 169.520 C 176.961 177.324,176.966 177.334,179.226 173.840 C 191.030 155.585,194.376 132.364,186.973 120.072 C 180.996 110.145,167.658 99.156,151.680 90.994 C 147.811 89.018,146.938 88.606,136.160 83.675 C 112.962 73.060,93.162 61.281,83.551 52.379 C 67.535 37.544,56.940 22.248,52.826 8.020 C 52.571 7.139,51.898 6.767,51.728 7.413 M35.733 75.733 C 35.111 76.355,35.720 87.523,36.682 93.120 C 38.058 101.130,41.175 109.425,44.975 115.186 C 50.900 124.171,65.782 135.468,78.400 140.560 C 89.735 145.133,103.505 150.104,110.560 152.168 C 147.352 162.935,159.946 171.837,162.717 189.041 C 163.091 191.362,163.602 190.278,165.318 183.520 C 166.428 179.150,166.655 168.076,165.702 164.800 C 165.421 163.832,164.947 162.206,164.649 161.187 C 161.976 152.044,149.121 143.399,125.280 134.712 C 114.970 130.956,111.685 129.711,104.160 126.710 C 67.374 112.038,44.812 95.247,36.771 76.560 C 36.318 75.507,36.119 75.348,35.733 75.733 M241.120 113.761 C 229.583 115.382,221.845 119.625,215.653 127.726 C 209.845 135.323,202.495 148.273,197.424 159.840 C 191.308 173.790,179.798 191.084,169.441 201.884 C 157.593 214.240,135.064 227.103,115.680 232.581 C 110.456 234.057,106.164 235.076,103.452 235.484 C 90.879 237.374,86.688 237.764,78.971 237.762 C 69.335 237.759,60.569 236.576,51.840 234.102 C 46.116 232.480,45.885 232.413,42.880 231.496 C 30.404 227.691,14.887 220.460,7.454 214.987 C 5.242 213.359,5.211 213.375,4.942 216.240 C 3.172 235.071,12.388 251.171,28.000 256.519 C 31.033 257.558,41.358 257.851,45.440 257.013 C 53.095 255.444,56.176 254.568,62.240 252.237 C 71.650 248.621,84.707 244.756,95.520 242.387 C 98.336 241.770,101.000 241.184,101.440 241.085 C 105.806 240.105,111.116 239.661,121.920 239.373 C 144.174 238.781,154.566 237.969,166.905 235.857 C 190.724 231.780,211.424 215.889,223.616 192.320 C 225.872 187.959,226.926 185.599,230.260 177.440 C 234.573 166.885,242.333 154.179,250.099 144.960 C 258.522 134.960,276.117 122.819,289.532 117.750 C 292.667 116.565,288.398 115.628,282.343 116.172 C 275.598 116.779,270.872 116.436,263.520 114.809 C 256.736 113.308,247.442 112.873,241.120 113.761 M393.118 119.722 C 383.560 129.519,361.590 144.477,351.200 148.261 C 337.028 153.422,325.958 155.018,309.412 154.286 C 293.570 153.585,286.489 154.108,278.240 156.591 C 264.400 160.756,249.733 172.233,237.968 188.103 C 234.791 192.390,234.793 192.392,239.760 189.781 C 249.802 184.502,256.970 182.230,266.531 181.295 C 271.215 180.837,272.182 180.864,283.360 181.761 C 304.455 183.455,313.861 182.951,328.800 179.330 C 360.461 171.656,386.679 150.390,393.634 126.743 C 394.612 123.420,394.827 122.540,395.218 120.258 C 395.742 117.202,395.609 117.168,393.118 119.722 M63.040 159.218 C 63.040 160.170,70.198 168.764,75.036 173.621 C 87.275 185.908,99.135 192.394,114.720 195.323 C 120.407 196.392,123.256 196.596,132.960 196.628 C 145.386 196.668,147.884 197.247,151.861 201.008 C 153.928 202.963,154.086 202.885,154.424 199.727 C 155.888 186.057,147.953 180.025,125.120 177.450 C 110.908 175.848,100.237 173.829,93.920 171.547 C 88.755 169.682,84.778 168.205,83.496 167.675 C 82.691 167.343,81.323 166.831,80.456 166.538 C 77.049 165.386,65.538 160.428,63.280 159.139 C 63.148 159.064,63.040 159.099,63.040 159.218 M366.720 184.679 C 363.955 186.309,355.391 190.665,352.480 191.922 C 351.600 192.302,349.440 193.242,347.680 194.010 C 345.920 194.778,342.536 196.139,340.160 197.034 C 337.784 197.929,334.040 199.338,331.840 200.166 C 323.141 203.440,319.894 204.259,310.947 205.433 C 304.686 206.254,292.437 205.769,285.440 204.423 C 282.027 203.766,281.681 203.692,277.440 202.720 C 273.176 201.742,272.543 201.620,268.320 200.958 C 263.141 200.147,251.985 200.038,248.640 200.765 C 239.810 202.687,226.200 208.674,221.899 212.528 C 221.536 212.854,221.086 213.120,220.899 213.120 C 220.711 213.120,220.362 213.357,220.122 213.646 C 219.720 214.130,219.986 214.154,223.523 213.947 C 233.932 213.338,244.025 215.786,257.230 222.120 C 269.359 227.939,286.204 229.954,299.200 227.143 C 300.872 226.781,302.816 226.365,303.520 226.219 C 325.055 221.742,352.856 204.440,367.552 186.368 C 370.800 182.375,370.761 182.297,366.720 184.679 M108.640 246.550 C 100.338 247.802,88.778 253.099,78.560 260.333 C 73.597 263.847,63.884 269.156,58.400 271.353 C 56.992 271.917,55.192 272.639,54.400 272.957 C 46.818 276.001,36.226 275.861,28.450 272.616 C 24.732 271.064,24.640 271.033,24.640 271.349 C 24.640 272.882,34.742 283.250,38.838 285.920 C 47.595 291.628,58.590 293.195,65.760 289.757 C 72.084 286.725,84.080 276.113,93.792 264.960 C 102.229 255.271,107.237 250.817,112.800 248.052 C 116.532 246.197,114.897 245.607,108.640 246.550 M136.323 246.712 C 136.060 246.878,135.542 246.937,135.170 246.844 C 133.694 246.473,128.734 248.399,124.960 250.808 C 119.971 253.994,113.047 262.769,111.523 267.840 C 110.672 270.671,104.876 282.534,101.795 287.750 C 94.737 299.699,85.871 305.220,73.120 305.604 C 72.424 305.625,75.778 306.939,78.040 307.531 C 103.141 314.106,119.468 305.391,124.002 283.000 C 127.317 266.628,132.372 253.751,137.711 248.080 L 139.293 246.400 138.046 246.405 C 137.361 246.408,136.585 246.546,136.323 246.712 " stroke="none" fill="#ffffff" fill-rule="evenodd"></path><path id="path1" d="M0.000 160.000 L 0.000 320.000 200.000 320.000 L 400.000 320.000 400.000 160.000 L 400.000 0.000 200.000 0.000 L 0.000 0.000 0.000 160.000 M53.503 6.882 C 58.389 26.043,77.127 48.978,99.577 63.275 C 106.886 67.930,127.411 78.901,135.200 82.317 C 160.658 93.482,175.331 103.267,184.689 115.320 C 195.330 129.027,194.072 149.984,181.285 172.000 C 176.973 179.426,175.876 179.910,176.191 174.252 C 176.624 166.447,175.464 152.008,174.043 147.520 C 169.887 134.397,153.497 120.454,132.480 112.162 C 130.808 111.503,128.836 110.692,128.098 110.362 C 127.359 110.031,126.665 109.760,126.554 109.760 C 124.566 109.760,93.018 93.425,86.080 88.803 C 53.914 67.374,39.716 32.995,51.618 5.352 C 52.239 3.911,52.878 4.430,53.503 6.882 M38.174 77.284 C 50.373 100.421,73.118 115.066,126.880 134.400 C 149.683 142.600,162.488 151.487,165.573 161.255 C 167.326 166.808,167.816 173.552,166.900 179.548 C 165.557 188.342,161.921 197.391,161.920 191.943 C 161.918 185.325,158.912 177.792,154.520 173.400 C 148.143 167.023,133.699 159.907,117.280 155.052 C 96.648 148.951,76.637 141.366,68.432 136.538 C 49.203 125.221,39.763 113.075,36.179 95.040 C 35.049 89.357,34.791 86.887,34.755 81.440 C 34.696 72.307,35.217 71.674,38.174 77.284 M259.359 113.119 C 260.768 113.369,263.216 113.852,264.800 114.192 C 271.195 115.563,275.929 115.753,285.001 115.001 C 287.619 114.784,290.486 115.446,291.554 116.514 C 292.451 117.411,292.031 117.808,289.035 118.899 C 279.272 122.455,264.078 132.329,255.087 140.960 C 245.737 149.936,236.417 164.610,229.580 181.120 C 218.742 207.292,204.253 223.088,183.044 231.854 C 176.053 234.744,171.767 235.904,162.560 237.400 C 153.463 238.878,131.464 240.316,117.896 240.319 C 109.443 240.320,104.050 241.120,90.560 244.373 C 81.914 246.458,70.099 250.107,62.240 253.121 C 58.596 254.518,54.427 255.882,52.480 256.315 C 34.136 260.390,26.428 259.133,16.251 250.408 C 7.859 243.213,3.545 232.353,3.916 219.360 C 4.130 211.880,4.329 211.596,7.641 214.051 C 15.313 219.737,29.943 226.633,42.400 230.434 C 60.525 235.966,64.540 236.640,79.360 236.640 C 90.685 236.640,92.973 236.437,104.640 234.393 C 121.323 231.471,140.419 223.085,156.960 211.418 C 171.251 201.338,187.365 180.337,196.313 160.132 C 205.603 139.152,215.552 124.116,223.578 118.924 C 232.313 113.274,246.901 110.907,259.359 113.119 M396.288 118.021 C 396.248 120.566,395.787 122.688,394.190 127.680 C 385.597 154.539,355.863 176.065,318.880 182.204 C 312.145 183.321,309.779 183.493,301.920 183.433 C 294.261 183.374,292.167 183.264,280.960 182.332 C 263.678 180.896,251.136 183.714,237.078 192.193 C 233.577 194.305,233.146 193.615,235.658 189.920 C 246.305 174.261,262.688 160.831,276.840 156.163 C 284.969 153.481,287.722 153.239,308.927 153.339 C 322.718 153.405,327.436 153.326,329.280 153.001 C 346.581 149.946,355.529 146.530,367.840 138.279 C 379.718 130.318,388.208 123.622,392.960 118.468 C 395.866 115.316,396.332 115.254,396.288 118.021 M65.860 159.287 C 68.269 160.479,70.960 161.757,71.840 162.127 C 77.814 164.641,87.962 168.509,95.680 171.214 C 96.980 171.670,102.762 173.153,104.320 173.430 C 105.112 173.572,107.272 173.976,109.120 174.329 C 113.465 175.159,115.953 175.527,121.440 176.154 C 139.758 178.246,145.063 179.792,150.038 184.485 C 154.567 188.757,156.593 195.654,154.994 201.352 C 154.363 203.600,153.574 204.221,152.724 203.139 C 148.890 198.255,145.493 197.343,130.880 197.276 C 119.202 197.223,117.841 197.072,109.120 194.871 C 91.846 190.511,75.826 178.706,62.938 160.840 C 59.858 156.570,60.104 156.439,65.860 159.287 M372.800 180.766 C 372.800 181.631,367.881 187.634,363.367 192.280 C 348.430 207.652,330.095 219.031,310.560 225.053 C 306.862 226.193,305.927 226.442,300.160 227.820 C 286.958 230.975,269.881 228.931,256.320 222.571 C 241.556 215.646,233.991 214.133,219.070 215.117 C 216.349 215.297,217.887 213.787,224.561 209.725 C 242.898 198.566,257.765 196.666,280.640 202.560 C 296.123 206.550,315.206 205.606,329.280 200.155 C 330.776 199.576,334.016 198.356,336.480 197.445 C 348.558 192.979,361.500 186.966,368.480 182.576 C 372.684 179.932,372.800 179.884,372.800 180.766 M116.176 245.928 C 117.644 246.687,117.332 247.223,114.876 248.162 C 109.247 250.313,103.455 255.177,94.876 264.960 C 84.532 276.755,72.947 287.061,66.254 290.423 C 58.723 294.206,47.166 292.475,37.612 286.135 C 33.612 283.480,25.058 274.313,23.165 270.651 C 22.593 269.547,23.307 269.052,24.442 269.764 C 37.102 277.702,53.567 275.165,74.080 262.116 C 76.368 260.660,80.256 258.179,82.720 256.601 C 95.802 248.224,111.148 243.328,116.176 245.928 M140.482 245.923 C 140.819 246.328,140.615 246.648,139.210 247.923 C 133.591 253.020,128.414 265.837,124.637 284.000 C 121.319 299.959,109.356 310.723,94.940 310.719 C 92.115 310.718,88.099 310.251,81.280 309.128 C 76.682 308.371,69.906 305.966,70.165 305.183 C 70.247 304.932,71.555 304.729,73.946 304.595 C 90.518 303.666,98.807 295.613,109.733 269.827 C 114.398 258.815,120.032 252.007,127.496 248.363 C 129.819 247.229,130.810 246.878,134.720 245.811 C 136.589 245.301,140.021 245.367,140.482 245.923 " stroke="none" fill="#f2b020" fill-rule="evenodd"></path></g></svg>