<?xml version="1.0" encoding="UTF-8" standalone="no"?>
<!DOCTYPE svg PUBLIC "-//W3C//DTD SVG 1.1//EN" "http://www.w3.org/Graphics/SVG/1.1/DTD/svg11.dtd">
<svg version="1.1" xmlns="http://www.w3.org/2000/svg" xmlns:xlink="http://www.w3.org/1999/xlink" preserveAspectRatio="xMidYMid meet" viewBox="267.3566433566433 248.99999999999994 114 106.06000000000006" width="110" height="102.06"><defs><path d="M281.37 250L316.79 250L316.79 263.62L281.37 263.62L281.37 250Z" id="e8dmb1qZh"></path><path d="M329.62 250L365.04 250L365.04 263.62L329.62 263.62L329.62 250Z" id="ciufJZi04"></path><path d="M268.36 262.75L378.36 262.75L378.36 321.52L268.36 321.52L268.36 262.75Z" id="c56bXEGsoy"></path><path d="M367.52 274.27L278.89 274.27" id="aiHbeoYAo"></path><path d="M330.47 285.21L278.89 285.21" id="a27UNmI8Uy"></path><path d="M367.52 296.37L278.89 296.37" id="b5vqgCP0C2"></path><path d="M367.52 304.8L278.89 304.8" id="b6Cd5zSuR"></path><path d="M367.52 313.94L278.89 313.94" id="bhms6BkDh"></path><path d="M277.88 352.06L280.97 343.27C279.12 343.27 278.09 343.27 277.88 343.27C276.25 343.27 274.93 342.31 274.93 341.12C274.93 339.62 274.93 327.6 274.93 326.1C274.93 324.9 276.25 323.94 277.88 323.94C281.47 323.94 310.14 323.94 313.72 323.94C315.36 323.94 316.68 324.9 316.68 326.1C316.68 327.6 316.68 339.62 316.68 341.12C316.68 342.31 315.36 343.27 313.72 343.27C312.1 343.27 303.96 343.27 289.32 343.27L277.88 352.06Z" id="e2WQgKdVe6"></path><path d="M369.27 352.06L366.18 343.27C368.03 343.27 369.06 343.27 369.27 343.27C370.9 343.27 372.22 342.31 372.22 341.12C372.22 339.62 372.22 327.6 372.22 326.1C372.22 324.9 370.9 323.94 369.27 323.94C365.68 323.94 337.01 323.94 333.43 323.94C331.8 323.94 330.47 324.9 330.47 326.1C330.47 327.6 330.47 339.62 330.47 341.12C330.47 342.31 331.8 343.27 333.43 343.27C335.05 343.27 343.19 343.27 357.83 343.27L369.27 352.06Z" id="fhIPevand"></path><path d="M304.89 252.85C300.81 256.54 298.26 258.84 297.24 259.77C296.75 260.21 295.98 260.15 295.56 259.63C295.18 259.15 294.21 257.94 292.67 256" id="f54tT4mut2"></path><path d="M352.02 260.34L344.69 253.14" id="a1e8kckpyq"></path><path d="M352.02 253.14L344.69 260.34" id="f1RTTvrOqK"></path></defs><g><g><use xlink:href="#e8dmb1qZh" opacity="1" fill="#ffffff" fill-opacity="1"></use><g><use xlink:href="#e8dmb1qZh" opacity="1" fill-opacity="0" stroke="#000000" stroke-width="1" stroke-opacity="1"></use></g></g><g><use xlink:href="#ciufJZi04" opacity="1" fill="#ffffff" fill-opacity="1"></use><g><use xlink:href="#ciufJZi04" opacity="1" fill-opacity="0" stroke="#000000" stroke-width="1" stroke-opacity="1"></use></g></g><g><use xlink:href="#c56bXEGsoy" opacity="1" fill="#ffffff" fill-opacity="1"></use><g><use xlink:href="#c56bXEGsoy" opacity="1" fill-opacity="0" stroke="#000000" stroke-width="1" stroke-opacity="1"></use></g></g><g><g><use xlink:href="#aiHbeoYAo" opacity="1" fill-opacity="0" stroke="#000000" stroke-width="4" stroke-opacity="1"></use></g></g><g><g><use xlink:href="#a27UNmI8Uy" opacity="1" fill-opacity="0" stroke="#000000" stroke-width="4" stroke-opacity="1"></use></g></g><g><g><use xlink:href="#b5vqgCP0C2" opacity="1" fill-opacity="0" stroke="#000000" stroke-width="1" stroke-opacity="1"></use></g></g><g><g><use xlink:href="#b6Cd5zSuR" opacity="1" fill-opacity="0" stroke="#000000" stroke-width="1" stroke-opacity="1"></use></g></g><g><g><use xlink:href="#bhms6BkDh" opacity="1" fill-opacity="0" stroke="#000000" stroke-width="1" stroke-opacity="1"></use></g></g><g><use xlink:href="#e2WQgKdVe6" opacity="1" fill="#ffffff" fill-opacity="1"></use><g><use xlink:href="#e2WQgKdVe6" opacity="1" fill-opacity="0" stroke="#000000" stroke-width="1" stroke-opacity="1"></use></g></g><g><use xlink:href="#fhIPevand" opacity="1" fill="#ffffff" fill-opacity="1"></use><g><use xlink:href="#fhIPevand" opacity="1" fill-opacity="0" stroke="#000000" stroke-width="1" stroke-opacity="1"></use></g></g><g><g><use xlink:href="#f54tT4mut2" opacity="1" fill-opacity="0" stroke="#000000" stroke-width="3" stroke-opacity="1"></use></g></g><g><g><use xlink:href="#a1e8kckpyq" opacity="1" fill-opacity="0" stroke="#000000" stroke-width="3" stroke-opacity="1"></use></g></g><g><g><use xlink:href="#f1RTTvrOqK" opacity="1" fill-opacity="0" stroke="#000000" stroke-width="3" stroke-opacity="1"></use></g></g></g></svg>