<svg width="890" height="734" viewBox="0 0 890 734" fill="none" xmlns="http://www.w3.org/2000/svg">
<path d="M2.99878 589.083H752.411V727.054H2.99878V589.083Z" fill="#E1A46A"/>
<path d="M448.18 560.177H734.201V727.054H448.18V560.177Z" fill="#E1A46A"/>
<path d="M752.411 272.968H873.805V727.054H752.411V272.968Z" fill="#E1A46A"/>
<path d="M448.18 472.745H533.722V727.054H448.18V472.745Z" fill="#B48150"/>
<path d="M648.681 472.745H734.201V727.054H648.681V472.745Z" fill="#B48150"/>
<path d="M2.99878 486.788H115.498V727.054H2.99878V486.788Z" fill="#B48150"/>
<path d="M850.696 142.418L813.035 2.09314L775.521 142.418H850.696Z" fill="#89ABE6"/>
<path d="M476.021 440.076H506.575L518.308 472.745H463.593L476.021 440.076Z" fill="#89ABE6"/>
<path d="M743.433 272.968H882.805V409.614H743.433V272.968Z" fill="#B48150"/>
<path d="M648.681 444.469L656.398 402.151L664.094 444.469V472.745H648.681V444.469Z" fill="#E1A46A"/>
<path d="M676.501 438.226H707.054L718.788 472.745H664.094L676.501 438.226Z" fill="#89ABE6"/>
<path d="M2.99878 399.061L13.1763 382.18L23.2697 399.061V486.788H2.99878V399.061Z" fill="#E1A46A"/>
<path d="M39.6083 430.09H79.7926L95.2271 472.745H23.2697L39.6083 430.09Z" fill="#89ABE6"/>
<path d="M115.498 469.444V486.788H2.99878V469.444H115.498Z" fill="#E1A46A"/>
<path d="M95.2271 399.061L105.405 382.18L115.498 399.061V486.788H95.2271V399.061Z" fill="#E1A46A"/>
<path d="M865.689 341.291C865.689 370.302 842.137 393.847 813.119 393.847C784.1 393.847 760.549 370.302 760.549 341.291C760.549 312.28 784.1 288.735 813.119 288.735C842.137 288.735 865.689 312.28 865.689 341.291Z" fill="#F8F8F8"/>
<path d="M115.498 558.516H448.18V591.185H115.498V558.516Z" fill="#89ABE6"/>
<path d="M533.722 532.638H648.849V560.303H533.722V532.638Z" fill="#89ABE6"/>
<path d="M775.521 142.418H850.696V185.094H775.521V142.418Z" fill="#E1A46A"/>
<path d="M775.521 185.094H850.696L873.805 240.299H752.411L775.521 185.094Z" fill="#89ABE6"/>
<path d="M718.788 444.469L726.526 402.151L734.201 444.469V472.745H718.788V444.469Z" fill="#E1A46A"/>
<path d="M448.18 444.469L455.918 402.151L463.593 444.469V472.745H448.18V444.469Z" fill="#E1A46A"/>
<path d="M518.308 444.469L526.046 402.151L533.722 444.469V472.745H518.308V444.469Z" fill="#E1A46A"/>
<path d="M533.722 472.745V490.109H448.18V472.745H533.722Z" fill="#E1A46A"/>
<path d="M734.201 472.745V490.109H648.681V472.745H734.201Z" fill="#E1A46A"/>
<path d="M411.15 727.054V593.75L418.51 541.783L423.767 593.75V727.054H411.15Z" fill="#EDB783"/>
<path d="M377.695 727.054V593.75L385.054 541.783L390.311 593.75V727.054H377.695Z" fill="#EDB783"/>
<path d="M344.912 727.054V593.75L352.272 541.783L357.529 593.75V727.054H344.912Z" fill="#EDB783"/>
<path d="M308.66 727.054V593.75L316.02 541.783L321.277 593.75V727.054H308.66Z" fill="#EDB783"/>
<path d="M275.541 727.054V593.75L282.901 541.783L288.158 593.75V727.054H275.541Z" fill="#EDB783"/>
<path d="M242.422 727.054V597.135L249.782 546.471L255.039 597.135V727.054H242.422Z" fill="#EDB783"/>
<path d="M206.128 727.054V597.135L213.488 546.471L218.745 597.135V727.054H206.128Z" fill="#EDB783"/>
<path d="M174.776 727.054V593.75L182.135 541.783L187.392 593.75V727.054H174.776Z" fill="#EDB783"/>
<path d="M140.942 727.054V593.75L148.301 541.783L153.558 593.75V727.054H140.942Z" fill="#EDB783"/>
<path d="M618.611 727.054V574.851L625.971 515.504L631.228 574.851V727.054H618.611Z" fill="#EDB783"/>
<path d="M585.156 727.054V574.851L592.515 515.504L597.772 574.851V727.054H585.156Z" fill="#EDB783"/>
<path d="M142.771 338.18H437.918L445.615 390.736H130.68L142.771 338.18Z" fill="white"/>
<path d="M142.771 338.18H437.918L445.615 390.736H130.68L142.771 338.18Z" stroke="black" stroke-width="0.988547"/>
<path d="M551.322 727.054V574.851L558.682 515.504L563.939 574.851V727.054H551.322Z" fill="#EDB783"/>
<path d="M172.399 240.299H284.899V378.27H172.399V240.299Z" fill="white"/>
<path d="M172.399 240.299H284.899V378.27H172.399V240.299Z" stroke="black" stroke-width="0.988547"/>
<path d="M299.955 240.299H412.454V378.27H299.955V240.299Z" fill="white"/>
<path d="M299.955 240.299H412.454V378.27H299.955V240.299Z" stroke="black" stroke-width="0.988547"/>
<path d="M269.128 280.368C242.086 310.01 225.2 328.53 218.45 335.93C215.401 339.252 210.039 338.831 207.558 335.089C204.993 331.158 198.516 321.362 188.17 305.679" fill="white"/>
<path d="M269.128 280.368C242.086 310.01 225.2 328.53 218.45 335.93C215.401 339.252 210.039 338.831 207.558 335.089C204.993 331.158 198.516 321.362 188.17 305.679" stroke="black" stroke-width="8.89692"/>
<path d="M367.748 309.295L396.157 332.567L381.627 345.601L355.678 322.329L329.73 345.601L315.221 332.567L341.148 309.295L315.221 286.002L329.73 272.968L355.678 296.261L381.627 272.968L396.157 286.002L367.748 309.295Z" fill="black"/>
<path d="M752.411 240.299H873.805V272.968H752.411V240.299Z" fill="#E1A46A"/>
<path d="M420.066 378.27H164.577" stroke="black" stroke-width="2.96564"/>
</svg>
